Coordinates
version=1
nRows=8
nColumns=40
inDegrees=yes

Units are S.I. units (second, meters, Newtons, ...)
Angles are in degrees.

endheader
time	pelvis_tilt	pelvis_list	pelvis_rotation	pelvis_tx	pelvis_ty	pelvis_tz	hip_flexion_r	hip_adduction_r	hip_rotation_r	knee_angle_r	knee_angle_r_beta	ankle_angle_r	subtalar_angle_r	mtp_angle_r	hip_flexion_l	hip_adduction_l	hip_rotation_l	knee_angle_l	knee_angle_l_beta	ankle_angle_l	subtalar_angle_l	mtp_angle_l	lumbar_extension	lumbar_bending	lumbar_rotation	arm_flex_r	arm_add_r	arm_rot_r	elbow_flex_r	pro_sup_r	wrist_flex_r	wrist_dev_r	arm_flex_l	arm_add_l	arm_rot_l	elbow_flex_l	pro_sup_l	wrist_flex_l	wrist_dev_l
      0.64000000	      0.94554626	     -3.18541110	     -3.38178023	     -0.89370518	      0.88903370	     -1.56480219	     -9.37745432	      4.77432138	    -12.89262311	    -20.08606711	     -0.35056800	     11.80768799	      8.79879784	     -6.65505450	     22.92471301	      5.19325918	     16.26803416	    -10.59256878	     -0.18487520	     -0.39967159	     -1.36673321	    -10.50023253	    -10.28470569	      3.53326889	      6.85475306	     19.72852351	    -13.49022943	     21.52358641	     29.26776687	     89.95437384	      0.00000000	      0.00000000	     -5.75684070	      8.94182297	     -9.35131812	     17.43805182	     89.95437384	      0.00000000	      0.00000000
      0.65000000	      0.99585230	     -3.05792058	     -3.71728859	     -0.88330014	      0.88827440	     -1.56549864	     -9.85938203	      4.34882778	    -12.49074614	    -20.61194994	     -0.35974639	     11.52783273	      8.89891553	     -6.74137175	     22.72573023	      5.02767324	     16.43697250	    -10.73254171	     -0.18731819	     -0.61845894	     -1.49010862	    -10.32898088	    -10.36651258	      3.34597983	      7.01275806	     19.52137328	    -13.35730410	     21.08927338	     29.64975382	     89.95437384	      0.00000000	      0.00000000	     -5.67720034	      8.71764683	     -9.10995184	     17.00940729	     89.95437384	      0.00000000	      0.00000000
      0.66000000	      0.76084289	     -3.01653041	     -3.91293985	     -0.87267805	      0.88704615	     -1.56630969	    -10.02356843	      4.07461342	    -12.23127383	    -21.15849407	     -0.36928539	     11.17766533	      8.59836419	     -6.60635512	     22.86828800	      4.91319284	     16.05755514	    -11.32265145	     -0.19761755	     -0.74540564	     -1.44604089	    -10.09550669	    -10.09671094	      3.28549767	      6.89405443	     19.27297464	    -13.22253322	     20.98715380	     30.01790879	     89.95437384	      0.00000000	      0.00000000	     -5.96643256	      8.64261644	     -9.07312433	     17.21825484	     89.95437384	      0.00000000	      0.00000000
      0.67000000	      0.78555522	     -2.94521914	     -4.17049332	     -0.86200160	      0.88648926	     -1.56714931	    -10.43860046	      3.74262018	    -11.72460935	    -21.72856753	     -0.37923505	     10.74632571	      8.64407747	     -6.58690608	     22.74856481	      4.77650232	     15.45286915	    -12.37748304	     -0.21602783	     -0.95051390	     -1.51452047	     -9.92827660	    -10.11733089	      3.16524220	      6.94260849	     19.09780337	    -13.00604913	     20.70659075	     29.99795797	     89.95437384	      0.00000000	      0.00000000	     -5.68902378	      8.36160692	     -9.10791767	     16.36612083	     89.95437384	      0.00000000	      0.00000000
      0.68000000	      0.66177113	     -2.80529828	     -4.41249612	     -0.85091853	      0.88567599	     -1.56799724	    -10.63226538	      3.34584814	    -11.27019684	    -22.44371250	     -0.39171668	     10.15174812	      8.41467609	     -6.45021547	     22.69675749	      4.52263285	     14.82423746	    -13.43043750	     -0.23440535	     -1.50525790	     -1.37863369	     -9.62513699	     -9.92203496	      2.98808283	      6.92774101	     18.72199781	    -12.84749688	     20.48376674	     30.19859947	     89.95437384	      0.00000000	      0.00000000	     -5.77709261	      8.24418619	     -9.08639524	     16.30499799	     89.95437384	      0.00000000	      0.00000000
      0.69000000	      0.56324892	     -2.61280983	     -4.61134637	     -0.83967199	      0.88536252	     -1.56892343	    -10.84738636	      2.88533544	    -10.85390996	    -23.07504253	     -0.40273547	      9.36131548	      8.32794927	     -6.38224317	     22.50181967	      4.19583750	     14.57922493	    -13.94861925	     -0.24344933	     -3.82274183	     -0.74180875	     -9.08382360	     -9.72112074	      2.75120539	      6.86421194	     18.36471292	    -12.54968279	     20.15968917	     30.04449479	     89.95437384	      0.00000000	      0.00000000	     -5.53045095	      8.00552850	     -9.17037736	     15.51664182	     89.95437384	      0.00000000	      0.00000000
      0.70000000	      0.63965568	     -1.89105974	     -4.87043881	     -0.82836594	      0.88568760	     -1.57010446	    -10.96377202	      1.75540661	    -10.58167095	    -24.17544128	     -0.42194105	      8.42037033	      8.04456366	     -6.35620064	     21.78520706	      3.20319748	     13.70961518	    -13.74013254	     -0.23981055	     -5.63564522	     -0.04401250	     -8.76543329	     -9.72249659	      1.89102602	      6.85289515	     17.88088156	    -12.16245887	     19.36499354	     29.99548092	     89.95437384	      0.00000000	      0.00000000	     -5.39630206	      7.90855241	     -9.24033048	     15.25957049	     89.95437384	      0.00000000	      0.00000000
      0.71000000	      0.60299031	     -1.34835799	     -5.04257200	     -0.81695568	      0.88603129	     -1.57131848	    -10.89016079	      0.84844316	    -10.38310839	    -25.36162296	     -0.44264382	      7.31393838	      7.72121373	     -6.26077282	     21.31629729	      2.42272841	     12.91440054	    -13.81432279	     -0.24110542	     -6.86687640	      0.86774873	     -8.58644034	     -9.57125811	      1.26981468	      6.68019170	     17.52097206	    -11.74753384	     18.96595974	     29.55594352	     89.95437384	      0.00000000	      0.00000000	     -5.26133870	      7.81102118	     -9.52964967	     14.90874301	     89.95437384	      0.00000000	      0.00000000
